<?xml version="1.0" encoding="utf-8"?>
<svg viewBox="0 0 500 500" xmlns="http://www.w3.org/2000/svg">
  <defs>
    <style>.cls-1{fill:#fff;}</style>
  </defs>
  <title>tumblr-logo-white</title>
  <path class="cls-1" d="M 390.445 461.744 C 374.167 479.129 336.444 490.929 302.665 491.486 L 298.956 491.486 C 185.472 491.486 160.825 408.051 160.825 359.349 L 160.825 224.047 L 116.117 224.047 C 110.94 224.047 106.743 219.85 106.743 214.673 L 106.743 150.778 C 106.747 144.039 110.996 138.032 117.349 135.783 C 175.607 115.261 193.879 64.42 196.583 25.773 C 197.316 15.447 202.717 10.441 211.681 10.441 L 278.318 10.441 C 283.495 10.441 287.691 14.638 287.691 19.815 L 287.691 128.029 L 365.694 128.029 C 370.863 128.024 375.06 132.205 375.076 137.373 L 375.076 214.161 C 375.071 219.338 370.872 223.531 365.694 223.527 L 287.332 223.527 L 287.332 348.656 C 287.332 380.076 308.037 388.746 320.826 388.746 C 333.095 388.453 345.173 384.716 351.227 382.282 C 355.72 380.479 359.67 379.285 363.203 380.172 C 366.493 380.993 368.656 383.323 370.114 387.574 L 390.79 447.966 C 392.467 452.803 393.911 458.043 390.445 461.744 Z"/>
</svg>